<svg xmlns="http://www.w3.org/2000/svg" version="1.1" xmlns:xlink="http://www.w3.org/1999/xlink" xmlns:svgjs="http://svgjs.dev/svgjs" width="100%" height="100%" viewBox="0 0 1000 600"><rect width="1000" height="600" x="0" y="0" fill="#ffe8f5"/><g><circle r="166.66666666666666" cx="427.2658793131511" cy="449.488074289378" fill="#8000ff" transform="matrix(0.47966379383636853,0,0,0.47966379383636865,0,84.39684562276528)"/><path d="M364.32006823840715 524.4880497972658L364.32006823840715 524.4880497972658Q343.826709901314 524.4880497972658 328.05820918082844 515.892224494763Q312.2897084603429 507.2679361945696 303.4661791763167 491.1009535064183Q294.6426498922905 474.9055078205767 294.6426498922905 452.5620546336071L294.6426498922905 452.5620546336071Q294.6426498922905 438.017462813809 299.0544145343036 424.1844459362712Q303.4661791763167 410.3514290587333 312.3750974534141 399.0800819733321Q321.28401573051156 387.8087348879308 334.71855064038374 381.1483934283755Q348.15308555025587 374.48805196882034 365.9709221044508 374.48805196882034L365.9709221044508 374.48805196882034Q373.3428385062662 374.48805196882034 380.94245888960495 375.8258128602694Q388.51361627525324 377.1351107540282 395.57243970247424 379.6967805461648Q402.65972612738557 382.25845033830143 408.38078866315743 385.75939905422155L408.38078866315743 385.75939905422155L407.58382472782597 375.91120185334063L418.85517181322723 375.91120185334063L418.85517181322723 422.84668504482204L411.45479241372135 422.84668504482204Q410.65782847839 409.9244840933772 404.59520997033326 401.0155658162798Q398.56105445996695 392.10664753918235 388.91209824291894 387.38178992257474Q379.2916050235613 382.6853953036576 367.3940719889711 382.6853953036576L367.3940719889711 382.6853953036576Q356.549669868926 382.6853953036576 347.01456564263964 387.4956419133364Q337.4794614163532 392.3058885230152 330.2213970052994 401.0155658162798Q322.9348695965552 409.72524310954435 318.8361979291366 421.6227761441345Q314.7375262617179 433.4918461810343 314.7375262617179 447.8371970169995L314.7375262617179 447.8371970169995Q314.7375262617179 467.1066464534051 321.7109606958677 482.27742422239214Q328.68439513001744 497.4482019913791 341.06579912534454 506.0440272938821Q353.4756661183621 514.6683155940755 369.6711118042037 514.6683155940755L369.6711118042037 514.6683155940755Q375.1929333561427 514.6683155940755 381.227088866509 513.6436476772208Q387.2897073745657 512.6189797603661 393.323862884932 510.25655095206236Q399.38648139298874 507.8941221437586 404.7090619610949 504.4216364255289L404.7090619610949 504.4216364255289L404.7090619610949 479.402661455661Q404.7090619610949 474.47856285522056 404.7090619610949 469.4690752617089Q404.7090619610949 464.45958766819723 404.7090619610949 459.5354890677568L404.7090619610949 459.5354890677568Q401.20811324517484 459.7347300515897 397.5363865431123 459.93397103542253Q393.83619684335935 460.1332120192554 390.36371112512967 460.3609160007786L390.36371112512967 460.3609160007786L390.36371112512967 451.3381457329196L436.67300836742214 451.3381457329196L436.67300836742214 458.08387618554605Q430.92348283395984 458.08387618554605 427.8494790833959 461.0724909430388Q424.77547533283195 464.03264270284114 423.5515664321444 468.2451663610214Q422.32765753145696 472.4292270215113 422.12841654762406 476.44250969585863Q421.9291755637912 480.42732937251566 421.9291755637912 482.476665206225L421.9291755637912 482.476665206225L421.9291755637912 513.8428886610536L416.3788910141618 513.8428886610536Q413.105646279765 513.8428886610536 407.35612074630274 515.0667975617412Q401.6350582105309 516.2907064624287 394.2631418087155 519.1654692291597L394.2631418087155 519.1654692291597Q387.88743032606425 521.6132870305348 379.49084600739417 523.0648999127455Q371.09426168872403 524.4880497972658 364.32006823840715 524.4880497972658ZM452.2422681040748 521.2148050628691L452.2422681040748 514.4406116125522Q460.0411294712464 514.0421296448865 462.91589223797746 510.8542739035609Q465.7621920070182 507.6948811599257 466.0752849816127 502.05920761722507Q466.38837795620714 496.42353407452447 466.38837795620714 489.2508586565419L466.38837795620714 489.2508586565419L466.38837795620714 400.7024728416853Q466.38837795620714 396.6038011742666 466.58761894004004 392.8182224814425Q466.78685992387284 389.0326437886184 467.0145639053961 385.9586400380544L467.0145639053961 385.9586400380544Q463.3143742056432 386.15788102188725 459.61418450589025 386.3571220057201Q455.9424578038277 386.58482598724333 452.2422681040748 386.7840669710762L452.2422681040748 386.7840669710762L452.2422681040748 377.7612967032171Q463.11513322181037 377.56205571938426 474.5857212910444 377.4482037286227Q486.0563093602785 377.3628147355514 497.9538423948687 377.3628147355514L497.9538423948687 377.3628147355514Q517.8210147827729 377.3628147355514 531.3409386857163 381.8599683706357Q544.88932558635 386.3571220057201 552.0620010043326 395.18065128974627Q559.2346764223153 404.0041805737725 559.8323993738136 417.0971595113598L559.8323993738136 417.0971595113598Q560.2593443391697 425.09526186236417 557.46997056551 433.8049391556288Q554.7090597895406 442.5146164488934 547.2232913969633 450.19962582530326Q539.7659860020767 457.8846352017132 526.2175991014428 462.6094928183208Q512.6976751984996 467.30588743723797 491.6065939099079 467.30588743723797L491.6065939099079 467.30588743723797Q490.7811669768861 467.30588743723797 488.5325901593439 467.30588743723797Q486.2555503441113 467.30588743723797 484.20621451040205 467.1066464534051L484.20621451040205 467.1066464534051L484.20621451040205 496.82201604219017Q484.20621451040205 502.37230059181957 484.12082551733084 506.35712026847654Q484.0069735265692 510.34193994513356 483.6084915589035 513.0174617280318L483.6084915589035 513.0174617280318Q486.8817362933003 512.8182207441989 489.9557400438643 512.6189797603661Q493.0297437944282 512.3912757788428 496.21759953575383 512.3058867857717Q499.37699227938907 512.1920347950099 502.45099602995305 511.99279381117714L502.45099602995305 511.99279381117714L502.45099602995305 521.2148050628691L452.2422681040748 521.2148050628691ZM484.20621451040205 409.72524310954435L484.20621451040205 458.710062134735Q488.10564519398775 459.1085441024007 490.8665559699573 459.22239609316233Q493.65592974361715 459.336248083924 497.52689742951253 459.336248083924L497.52689742951253 459.336248083924Q509.2251894802699 459.336248083924 518.8456826996276 454.725242458078Q528.4946389166755 450.11423683223205 534.2157014524473 441.4899485320387Q539.9652269859096 432.89412322953575 539.9652269859096 420.99659019494555L539.9652269859096 420.99659019494555Q539.9652269859096 411.3760969755879 536.8912232353455 404.51651453219984Q533.8172194847816 397.6284690911213 528.1815459420811 393.4444084306314Q522.5458723993804 389.2318847724512 514.7470110322088 387.29640092950353Q506.97661266272775 385.3324540888654 497.52689742951253 385.3324540888654L497.52689742951253 385.3324540888654Q490.35422201152994 385.3324540888654 487.59331123556046 388.4064578394294Q484.832400459591 391.48046158999335 484.5193074849965 396.9168941488611Q484.20621451040205 402.35332670772885 484.20621451040205 409.72524310954435L484.20621451040205 409.72524310954435Z " fill="#ffe8f5" transform="matrix(0.47966379383636853,0,0,0.47966379383636865,0,84.39684562276528)"/><path d="M743.4161052841766 524.4880462024234L743.4161052841766 524.4880462024234Q723.9601521507304 524.4880462024234 708.9898771008287 516.3273547492279Q694.0196020509271 508.1396411389027 685.6427333406933 492.79105588918395Q677.2658646304595 477.41544848233553 677.2658646304595 456.20305513545316L677.2658646304595 456.20305513545316Q677.2658646304595 442.3947328421323 681.4542989855764 429.2619644770561Q685.6427333406933 416.12919611197987 694.1006685223164 405.42842188858447Q702.5586037039396 394.72764766518907 715.3130618691988 388.404462896819Q728.067520034458 382.081278128449 744.9833903977043 382.081278128449L744.9833903977043 382.081278128449Q751.982129094319 382.081278128449 759.197045047972 383.35131951354896Q766.3849388444951 384.59433874151915 773.0864338126821 387.0263328831999Q779.814950937999 389.4583270248807 785.246404521086 392.7820523518444L785.246404521086 392.7820523518444L784.489784121452 383.4323859849383L795.1905583448474 383.4323859849383L795.1905583448474 427.99192309195615L788.164797491103 427.99192309195615Q787.4081770914689 415.7238637550331 781.6524576228244 407.26592857340995Q775.9237603113097 398.8079933917868 766.7632490443121 394.32231530824225Q757.6297599344443 389.86365938182746 746.3344982541936 389.86365938182746L746.3344982541936 389.86365938182746Q736.039056387745 389.86365938182746 726.9866337492665 394.43040393676137Q717.934211110788 398.9971484916953 711.0435610426925 407.26592857340995Q704.1258888174672 415.5347086551246 700.234698190778 426.8299703353753Q696.3435075640888 438.09820985849626 696.3435075640888 451.7173770519086L696.3435075640888 451.7173770519086Q696.3435075640888 470.011377428774 702.9639360608863 484.41418717895016Q709.5843645576841 498.81699692912633 721.3390029091412 506.9776883823219Q733.120663417728 515.165401992647 748.4962708245765 515.165401992647L748.4962708245765 515.165401992647Q753.738569307755 515.165401992647 759.4672666192697 514.1926043359749Q765.2229860879144 513.2198066793026 770.951683399429 510.9769676375302Q776.7074028680735 508.73412859575797 781.7605462513436 505.437425425924L781.7605462513436 505.437425425924L781.7605462513436 481.6849493088418Q781.7605462513436 477.0101161253887 781.7605462513436 472.2542164705463Q781.7605462513436 467.4983168157039 781.7605462513436 462.8234836322508L781.7605462513436 462.8234836322508Q778.4368209243798 463.01263873215936 774.9509626546375 463.20179383206784Q771.4380822277652 463.39094893197637 768.1413790579312 463.60712618901465L768.1413790579312 463.60712618901465L768.1413790579312 455.0411023788723L812.1064287080937 455.0411023788723L812.1064287080937 461.4453536186317Q806.6479529678769 461.4453536186317 803.72955999786 464.2826801172593Q800.811167027843 467.0929844587571 799.6492142712622 471.09226371396545Q798.4872615146813 475.0645208120441 798.2981064147729 478.87464496734395Q798.1089513148644 482.6577469655141 798.1089513148644 484.6033422788587L798.1089513148644 484.6033422788587L798.1089513148644 514.3817594358834L792.839630674556 514.3817594358834Q789.7320826046306 514.3817594358834 784.2736068644138 515.5437121924642Q778.8421532813267 516.7056649490451 771.8434145847119 519.4349028191534L771.8434145847119 519.4349028191534Q765.7904513876398 521.7588083323151 757.8189150343528 523.1369383459341Q749.8473786810658 524.4880462024234 743.4161052841766 524.4880462024234ZM911.7100998884865 521.380498132498L883.9043002019363 521.380498132498Q883.309812745081 518.0837949626641 883.1206576451725 515.5437121924642Q882.9315025452639 513.0036294222642 882.5261701883172 510.30141370928555L882.5261701883172 510.30141370928555Q875.9327638486493 516.8948200489535 868.2314490666602 520.7049442042534Q860.5571564418008 524.4880462024234 851.9911326316585 524.4880462024234L851.9911326316585 524.4880462024234Q837.2100126816654 524.4880462024234 829.9950967280123 517.7865512342364Q822.8072029314892 511.05803410891957 822.8072029314892 501.33005754219647L822.8072029314892 501.33005754219647Q822.8072029314892 492.38572353223714 828.3467451430954 485.8733836639587Q833.8862873547016 479.36104379568013 842.7495548932716 475.17260944056324Q851.6128224318414 470.98417508544634 862.0163529268093 468.9575133007124Q872.4198834217771 466.9038293588486 882.1478599885002 467.0929844587571L882.1478599885002 467.0929844587571L882.1478599885002 455.0411023788723Q882.1478599885002 448.2315187821662 880.9859072319193 442.2055777422238Q879.8239544753386 436.1526145451516 875.9327638486493 432.2614239184624Q872.04157322196 428.3702332917731 863.4755494118177 428.18107819186463L863.4755494118177 428.18107819186463Q857.8279185716924 427.99192309195615 851.8830440031394 430.31582860511776Q845.9651915917161 432.66675627540917 843.2359537216076 438.31438711553454L843.2359537216076 438.31438711553454Q844.8032388351353 439.8546500719324 845.2896376634715 441.90833401379615Q845.7760364918076 443.9349957985301 845.7760364918076 445.69143601196623L845.7760364918076 445.69143601196623Q845.7760364918076 448.04236368225764 843.830441178463 451.04182312366396Q841.8848458651183 454.0683047222 837.0208575817568 453.87914962229155L837.0208575817568 453.87914962229155Q832.9134896980293 453.87914962229155 830.7787392847762 451.04182312366396Q828.643988871523 448.2315187821662 828.643988871523 444.3403281554769L828.643988871523 444.3403281554769Q828.643988871523 437.71989965867925 833.6160657834038 432.4776011755007Q838.5611205381547 427.20828053519233 847.3162994482054 424.1007324652669Q856.0714783582563 420.9931843953414 867.1775849385984 420.9931843953414L867.1775849385984 420.9931843953414Q883.4989678449895 420.9931843953414 891.281349098368 429.6402746768731Q899.0637303517465 438.31438711553454 898.874575251838 456.986697692217L898.874575251838 456.986697692217Q898.874575251838 464.1745914887402 898.874575251838 471.4705739137825Q898.874575251838 478.76655633882484 898.7935087804486 486.06253876386717Q898.6854201519294 493.3585211889095 898.6854201519294 500.762592242471L898.6854201519294 500.762592242471Q898.6854201519294 503.8701403123964 898.4962650520209 506.9776883823219Q898.3071099521125 510.08523645224733 897.9017775951656 513.9764270789365L897.9017775951656 513.9764270789365Q901.4146580220379 513.787271979028 904.819449820391 513.5981168791195Q908.224241618744 513.408961779211 911.7100998884865 513.2198066793026L911.7100998884865 513.2198066793026L911.7100998884865 521.380498132498ZM882.1478599885002 473.71341295555476L882.1478599885002 473.71341295555476Q875.5274314917025 473.9025680554633 868.2314490666602 475.3617645404717Q860.9354666416178 476.82096102548024 854.8014369731562 479.73935399549714Q848.6944294618246 482.6577469655141 844.8843053065247 487.4406687774863Q841.1012033083546 492.19656843232866 841.2903584082632 499.00615202903487L841.2903584082632 499.00615202903487Q841.6686686080801 506.194045825558 846.0462580631055 509.81501488094943Q850.4238475181309 513.408961779211 856.4768107152031 513.408961779211L856.4768107152031 513.408961779211Q864.4483470684901 513.408961779211 870.3661994799132 510.3824801806749Q876.3110740484664 507.38302073926866 882.1478599885002 501.92454499905176L882.1478599885002 501.92454499905176Q881.9587048885916 499.7897945857987 881.9587048885916 497.24971181559874Q881.9587048885916 494.7366512025286 881.9587048885916 492.0074133324202L881.9587048885916 492.0074133324202Q881.9587048885916 491.03461567574783 882.039771359981 485.7652950354395Q882.1478599885002 480.52299655226096 882.1478599885002 473.71341295555476ZM965.0248159055551 524.4880462024234L965.0248159055551 524.4880462024234Q954.5131967820681 524.4880462024234 947.4333916140641 520.5968555757343Q940.3265642889304 516.7056649490451 936.7326173906687 507.38302073926866Q933.1116483352774 498.03335437236257 933.1116483352774 482.09028166578855L933.1116483352774 482.09028166578855L933.1116483352774 447.44787622540235Q933.1116483352774 444.3403281554769 933.2197369637964 441.2327800855515Q933.3278255923157 438.09820985849626 933.8952908920411 434.8015066886623L933.8952908920411 434.8015066886623Q930.5985877222072 434.99066178857083 927.1937959238542 435.09875041708995Q923.789004125501 435.1798168884793 920.4652787985373 435.3959941455176L920.4652787985373 435.3959941455176L920.4652787985373 427.3974356351008L926.5182419956095 427.3974356351008Q934.8680885487134 427.3974356351008 938.6782127040134 425.74908405018385Q942.4613147021835 424.1007324652669 944.5960651154365 422.15513715192225L944.5960651154365 422.15513715192225L950.243695955562 422.15513715192225L950.243695955562 481.49579420893326Q950.243695955562 498.22250947227104 954.9995956104043 506.4912895539857Q959.7825174223766 514.7600696357003 971.2669342025358 514.5709145357919L971.2669342025358 514.5709145357919Q978.6439830989674 514.3817594358834 985.3725002242843 510.00416998085797Q992.0739951924713 505.62658052583254 996.1543409190691 499.60063948589016L996.1543409190691 499.60063948589016L996.1543409190691 449.5826266386555Q996.1543409190691 444.90779345520247 996.3434960189776 441.50300165684934Q996.5596732760158 438.09820985849626 997.1271385757415 434.8015066886623L997.1271385757415 434.8015066886623Q993.641280305999 434.99066178857083 990.1283998791267 435.09875041708995Q986.6155194522545 435.1798168884793 983.129661182512 435.3959941455176L983.129661182512 435.3959941455176L983.129661182512 427.3974356351008L989.1556022224544 427.3974356351008Q997.5324709326882 427.3974356351008 1001.3155729308583 425.74908405018385Q1005.0986749290283 424.1007324652669 1007.2604474994113 422.15513715192225L1007.2604474994113 422.15513715192225L1012.8810561824068 422.15513715192225L1012.6919010824984 495.7094488592009Q1012.6919010824984 498.81699692912633 1012.5027459825899 504.46462776925176Q1012.3135908826814 510.08523645224733 1011.9082585257346 513.9764270789365L1011.9082585257346 513.9764270789365Q1015.4211389526068 513.787271979028 1018.9340193794791 513.5981168791195Q1022.4198776492216 513.408961779211 1025.9327580760937 513.2198066793026L1025.9327580760937 513.2198066793026L1025.9327580760937 521.380498132498L998.0999362324137 521.380498132498Q997.5324709326882 518.0837949626641 997.2352272042606 515.165401992647Q996.937983475833 512.2470090226302 996.7488283759243 509.70692625243026L996.7488283759243 509.70692625243026Q990.722887335982 515.7328672923727 982.1568635258396 520.1104567473981Q973.5908397156974 524.4880462024234 965.0248159055551 524.4880462024234ZM1076.7073913229624 524.4880462024234L1076.7073913229624 524.4880462024234Q1072.221713239418 524.4880462024234 1067.5739022130947 523.2180048173235Q1062.8990690296414 521.9749855893533 1058.899789774433 518.2729500625726Q1054.9275326763545 514.5709145357919 1052.5766050060633 507.464087210658Q1050.2526994929017 500.3572598855242 1050.2526994929017 488.6836880054564L1050.2526994929017 488.6836880054564L1050.6310096927186 432.2614239184624L1035.6607346428168 432.4776011755007L1035.6607346428168 424.1007324652669Q1040.7138780260866 423.91157736535837 1045.9561765092653 420.31763046709676Q1051.225497149574 416.6966614117054 1055.4139315046905 410.48156527185455Q1059.5753437026779 404.26646913200364 1061.1426288162056 396.86239807844214L1061.1426288162056 396.86239807844214L1067.7630573130032 396.86239807844214L1067.7630573130032 424.1007324652669L1100.432845282915 424.1007324652669L1100.432845282915 431.6939586187369L1067.7630573130032 432.0722688185539L1067.3577249560562 486.1706273923863Q1067.3577249560562 494.92580630243714 1068.8169214410646 501.05983597089863Q1070.2761179260733 507.1668434822304 1073.5998432530369 510.30141370928555Q1076.8965464228709 513.408961779211 1082.1658670631791 513.408961779211L1082.1658670631791 513.408961779211Q1087.5973206462663 513.408961779211 1092.3802424582386 510.30141370928555Q1097.136142113081 507.1668434822304 1100.838177639862 501.7353898991433L1100.838177639862 501.7353898991433L1106.0804761230402 506.00489072564955Q1101.8109752965338 512.4361641225387 1097.622540941417 516.1381996493194Q1093.4341065863 519.8132130189704 1089.542915959611 521.6777418609256Q1085.6517253329216 523.5152485457511 1082.3550221630876 524.0016473740873Q1079.031296836124 524.4880462024234 1076.7073913229624 524.4880462024234ZM1202.3874441335988 521.380498132498L1174.5816444470488 521.380498132498Q1173.9871569901934 518.0837949626641 1173.798001890285 515.5437121924642Q1173.6088467903764 513.0036294222642 1173.2035144334295 510.30141370928555L1173.2035144334295 510.30141370928555Q1166.583085936632 516.8948200489535 1158.9087933117726 520.7049442042534Q1151.2345006869132 524.4880462024234 1142.668476876771 524.4880462024234L1142.668476876771 524.4880462024234Q1127.887356926778 524.4880462024234 1120.672440973125 517.7865512342364Q1113.4845471766016 511.05803410891957 1113.4845471766016 501.33005754219647L1113.4845471766016 501.33005754219647Q1113.4845471766016 492.38572353223714 1119.0240893882078 485.8733836639587Q1124.563631599814 479.36104379568013 1133.4268991383842 475.17260944056324Q1142.2631445198244 470.98417508544634 1152.693697171922 468.9575133007124Q1163.0972276668895 466.9038293588486 1172.8252042336126 467.0929844587571L1172.8252042336126 467.0929844587571L1172.8252042336126 455.0411023788723Q1172.8252042336126 448.2315187821662 1171.6632514770317 442.2055777422238Q1170.4742765633214 436.1526145451516 1166.583085936632 432.2614239184624Q1162.691895309943 428.3702332917731 1154.1528936569302 428.18107819186463L1154.1528936569302 428.18107819186463Q1148.505262816805 427.99192309195615 1142.560388248252 430.31582860511776Q1136.6425358368288 432.66675627540917 1133.9132979667202 438.31438711553454L1133.9132979667202 438.31438711553454Q1135.453560923118 439.8546500719324 1135.9399597514544 441.90833401379615Q1136.4263585797903 443.9349957985301 1136.4263585797903 445.69143601196623L1136.4263585797903 445.69143601196623Q1136.4263585797903 448.04236368225764 1134.4807632664456 451.04182312366396Q1132.5351679531013 454.0683047222 1127.6711796697396 453.87914962229155L1127.6711796697396 453.87914962229155Q1123.5908339431417 453.87914962229155 1121.4560835298885 451.04182312366396Q1119.3213331166357 448.2315187821662 1119.3213331166357 444.3403281554769L1119.3213331166357 444.3403281554769Q1119.3213331166357 437.71989965867925 1124.2663878713865 432.4776011755007Q1129.2384647832673 427.20828053519233 1137.993643693318 424.1007324652669Q1146.7488226033688 420.9931843953414 1157.8279070265812 420.9931843953414L1157.8279070265812 420.9931843953414Q1174.1763120901019 420.9931843953414 1181.9586933434807 429.6402746768731Q1189.741074596859 438.31438711553454 1189.5519194969506 456.986697692217L1189.5519194969506 456.986697692217Q1189.5519194969506 464.1745914887402 1189.5519194969506 471.4705739137825Q1189.5519194969506 478.76655633882484 1189.4438308684312 486.06253876386717Q1189.3627643970417 493.3585211889095 1189.3627643970417 500.762592242471L1189.3627643970417 500.762592242471Q1189.3627643970417 503.8701403123964 1189.1736092971332 506.9776883823219Q1188.9574320400952 510.08523645224733 1188.5791218402783 513.9764270789365L1188.5791218402783 513.9764270789365Q1192.0920022671503 513.787271979028 1195.4967940655033 513.5981168791195Q1198.9015858638563 513.408961779211 1202.3874441335988 513.2198066793026L1202.3874441335988 513.2198066793026L1202.3874441335988 521.380498132498ZM1172.8252042336126 473.71341295555476L1172.8252042336126 473.71341295555476Q1166.204775736815 473.9025680554633 1158.9087933117726 475.3617645404717Q1151.6128108867301 476.82096102548024 1145.478781218269 479.73935399549714Q1139.3447515498074 482.6577469655141 1135.5616495516374 487.4406687774863Q1131.778547553467 492.19656843232866 1131.9677026533755 499.00615202903487L1131.9677026533755 499.00615202903487Q1132.3460128531924 506.194045825558 1136.7236023082178 509.81501488094943Q1141.1011917632436 513.408961779211 1147.1271328031858 513.408961779211L1147.1271328031858 513.408961779211Q1155.1256913136026 513.408961779211 1161.0435437250258 510.3824801806749Q1166.988418293579 507.38302073926866 1172.8252042336126 501.92454499905176L1172.8252042336126 501.92454499905176Q1172.636049133704 499.7897945857987 1172.636049133704 497.24971181559874Q1172.636049133704 494.7366512025286 1172.636049133704 492.0074133324202L1172.636049133704 492.0074133324202Q1172.636049133704 491.03461567574783 1172.7171156050936 485.7652950354395Q1172.8252042336126 480.52299655226096 1172.8252042336126 473.71341295555476ZM1255.5130050507591 521.380498132498L1215.8174562271029 521.380498132498L1215.8174562271029 515.5437121924642Q1221.8433972670455 515.5437121924642 1224.1943249373367 512.5172305939282Q1226.5182304504983 509.5177711525218 1226.8965406503153 504.16738404082406Q1227.3018730072622 498.81699692912633 1227.3018730072622 491.81825823251165L1227.3018730072622 491.81825823251165L1227.3018730072622 447.44787622540235Q1227.3018730072622 444.3403281554769 1227.3829394786517 441.2327800855515Q1227.4910281071707 438.09820985849626 1228.085515564026 434.8015066886623L1228.085515564026 434.8015066886623Q1224.5726351371536 434.99066178857083 1221.1678433388006 435.1798168884793Q1217.7630515404476 435.3959941455176 1214.250171113575 435.5851492454261L1214.250171113575 435.5851492454261L1214.250171113575 427.3974356351008Q1222.8161949237178 427.3974356351008 1227.1937843787427 426.6408152354668Q1231.5713738337686 425.857172678703 1233.7061242470213 424.6952199221222Q1235.8678968174045 423.50624500841155 1237.2190046738938 422.15513715192225L1237.2190046738938 422.15513715192225L1242.866635514019 422.15513715192225Q1243.244945713836 424.1007324652669 1243.3530343423554 426.6408152354668Q1243.4341008137444 429.1538758485369 1243.6502780707829 432.4776011755007L1243.6502780707829 432.4776011755007Q1249.4870640108165 427.3974356351008 1257.053268007157 424.208821093786Q1264.6464941606268 420.9931843953414 1272.2397203140968 420.9931843953414L1272.2397203140968 420.9931843953414Q1281.9676968808199 420.9931843953414 1288.5881253776179 424.4790426650839Q1295.2085538744154 427.99192309195615 1298.8835672440664 434.01786413189853L1298.8835672440664 434.01786413189853Q1305.503995740864 428.58641054881144 1314.1781081795257 424.77628639351155Q1322.8251984610574 420.9931843953414 1331.2020671712908 420.9931843953414L1331.2020671712908 420.9931843953414Q1348.1179375345373 420.9931843953414 1356.0894738878242 431.2075597904007Q1364.0610102411115 441.42193518546 1363.682700041294 464.57992384568695L1363.682700041294 464.57992384568695L1363.4935449413856 500.762592242471Q1363.4935449413856 504.65378286916024 1363.3854563128666 507.65324231056655Q1363.3043898414771 510.6797239091026 1362.7099023846222 513.9764270789365L1362.7099023846222 513.9764270789365Q1365.8174504545473 513.787271979028 1368.8439320530833 513.7062055076387Q1371.8433914944899 513.5981168791195 1374.977961721545 513.408961779211L1374.977961721545 513.408961779211L1374.977961721545 521.380498132498L1335.2824128978887 521.380498132498L1335.2824128978887 515.5437121924642Q1341.3083539378313 515.5437121924642 1343.632259450993 512.5172305939282Q1345.9831871212841 509.5177711525218 1346.361497321101 504.16738404082406Q1346.766829678048 498.81699692912633 1346.766829678048 491.81825823251165L1346.766829678048 491.81825823251165L1346.766829678048 464.57992384568695Q1346.766829678048 447.82618642521936 1341.4164425663503 439.4763398721154Q1336.0660554546525 431.0994711618816 1324.5816386744932 431.28862626179006L1324.5816386744932 431.28862626179006Q1318.555697634551 431.28862626179006 1312.502734437479 434.01786413189853Q1306.4767933975363 436.74710200200695 1302.018137471122 440.8274477286047L1302.018137471122 440.8274477286047Q1302.9909351277938 443.9349957985301 1303.4773339561302 447.5559648539215Q1303.9637327844662 451.1499117521831 1303.9637327844662 455.0411023788723L1303.9637327844662 455.0411023788723Q1303.7475555274282 466.3093419019933 1303.7475555274282 477.79375868215254Q1303.7475555274282 489.27817546231176 1303.5584004275197 500.762592242471L1303.5584004275197 500.762592242471Q1303.5584004275197 504.65378286916024 1303.4773339561302 507.65324231056655Q1303.3692453276112 510.6797239091026 1302.7747578707558 513.9764270789365L1302.7747578707558 513.9764270789365Q1305.9093280978109 513.787271979028 1308.9087875392174 513.7062055076387Q1311.935269137753 513.5981168791195 1315.0428172076786 513.408961779211L1315.0428172076786 513.408961779211L1315.0428172076786 521.380498132498L1275.3472683840223 521.380498132498L1275.3472683840223 515.5437121924642Q1281.373209423965 515.5437121924642 1283.616048465737 512.5172305939282Q1285.8588875075093 509.5177711525218 1286.3452863358457 504.16738404082406Q1286.8316851641816 498.81699692912633 1286.8316851641816 491.81825823251165L1286.8316851641816 491.81825823251165L1287.02084026409 464.57992384568695Q1287.2099953639986 447.82618642521936 1282.1568519807283 439.28718477220684Q1277.1037085974585 430.7211609620646 1265.6192918172992 430.91031606197305L1265.6192918172992 430.91031606197305Q1259.593350777357 430.91031606197305 1253.756564837323 433.53146530356236Q1247.9197788972892 436.1526145451516 1243.8394331706913 440.25998242887914L1243.8394331706913 440.25998242887914Q1243.8394331706913 442.5838879420408 1243.9204996420808 445.20503718363005Q1244.0285882705998 447.82618642521936 1244.0285882705998 450.7445793952363L1244.0285882705998 450.7445793952363L1244.0285882705998 500.762592242471Q1244.0285882705998 504.65378286916024 1243.9204996420808 507.65324231056655Q1243.8394331706913 510.6797239091026 1243.244945713836 513.9764270789365L1243.244945713836 513.9764270789365Q1246.3524937837615 513.787271979028 1249.3789753822975 513.7062055076387Q1252.4054569808336 513.5981168791195 1255.5130050507591 513.408961779211L1255.5130050507591 513.408961779211L1255.5130050507591 521.380498132498ZM1443.0737976886066 521.380498132498L1443.0737976886066 514.9492247356088Q1450.4508465850386 514.5709145357919 1453.1800844551472 511.54443293725575Q1455.9093223252553 508.54497349584943 1456.2065660536828 503.1945863841517Q1456.4767876249807 497.84419927245403 1456.4767876249807 491.03461567574783L1456.4767876249807 491.03461567574783L1456.4767876249807 406.9686848449823Q1456.4767876249807 403.07749421829305 1456.6929648820192 399.48354732003145Q1456.8821199819276 395.8896004217699 1457.0712750818361 392.97120745175295L1457.0712750818361 392.97120745175295Q1453.558394654964 393.1603625516614 1450.0725363852216 393.3495176515699Q1446.5596559583491 393.56569490860824 1443.0737976886066 393.7548500085167L1443.0737976886066 393.7548500085167L1443.0737976886066 385.18882619837444Q1453.3692395550556 384.9996710984659 1464.2591688783596 384.8915824699468Q1475.176120358793 384.81051599855743 1486.444359881914 384.81051599855743L1486.444359881914 384.81051599855743Q1505.3328477156347 384.81051599855743 1518.1683723522833 389.08001682506364Q1531.003896988932 393.3495176515699 1537.813480585638 401.7263863618037Q1544.6230641823445 410.1032550720375 1545.2175516391994 422.53344735173926L1545.2175516391994 422.53344735173926Q1545.5958618390164 430.1266735052092 1542.9747125974272 438.3954535869239Q1540.3535633558377 446.66423366863853 1533.2467360307041 453.9602160936809Q1526.1399087055702 461.25619851872324 1513.3043840689215 465.7418766022677Q1500.468859432273 470.2005325286825 1480.4184188419717 470.2005325286825L1480.4184188419717 470.2005325286825Q1479.6347762852079 470.2005325286825 1477.5000258719547 470.2005325286825Q1475.365275458702 470.2005325286825 1473.4196801453568 470.011377428774L1473.4196801453568 470.011377428774L1473.4196801453568 498.22250947227104Q1473.4196801453568 503.4918301125794 1473.3115915168378 507.2749321107495Q1473.2305250454483 511.05803410891957 1472.8251926885018 513.5981168791195L1472.8251926885018 513.5981168791195Q1475.9327407584274 513.408961779211 1478.851133728444 513.2198066793026Q1481.769526698461 513.0036294222642 1484.7960082969971 512.9225629508749Q1487.8224898955332 512.8144743223556 1490.7408828655502 512.6253192224472L1490.7408828655502 512.6253192224472L1490.7408828655502 521.380498132498L1443.0737976886066 521.380498132498ZM1473.4196801453568 415.5347086551246L1473.4196801453568 462.039841075487Q1477.1217156721377 462.41815127530407 1479.7428649137273 462.5262399038232Q1482.3640141553165 462.63432853234235 1486.066049682097 462.63432853234235L1486.066049682097 462.63432853234235Q1497.1451341053094 462.63432853234235 1506.305645372307 458.2567390773169Q1515.4391344821747 453.87914962229155 1520.8976102223914 445.69143601196623Q1526.3290638054787 437.5307445587707 1526.3290638054787 426.23548287852003L1526.3290638054787 426.23548287852003Q1526.3290638054787 417.1019937686522 1523.410670835462 410.58965390037366Q1520.492277865445 404.05029187496535 1515.1418907537472 400.07803477688674Q1509.7915036420495 396.0787555216784 1502.414454745618 394.2412488368529Q1495.0103836920562 392.3767199948976 1486.066049682097 392.3767199948976L1486.066049682097 392.3767199948976Q1479.256466085391 392.3767199948976 1476.6353168438013 395.29511296491455Q1473.9871454450827 398.2135059349315 1473.7169238737847 403.3747379467207Q1473.4196801453568 408.5359699585099 1473.4196801453568 415.5347086551246L1473.4196801453568 415.5347086551246ZM1644.4429126197751 521.380498132498L1616.6100907760951 521.380498132498Q1616.0156033192397 518.0837949626641 1615.8264482193313 515.5437121924642Q1615.6372931194228 513.0036294222642 1615.2589829196058 510.30141370928555L1615.2589829196058 510.30141370928555Q1608.6385544228083 516.8948200489535 1600.937239640819 520.7049442042534Q1593.26294701596 524.4880462024234 1584.6969232058177 524.4880462024234L1584.6969232058177 524.4880462024234Q1569.9158032558244 524.4880462024234 1562.727909459301 517.7865512342364Q1555.512993505648 511.05803410891957 1555.512993505648 501.33005754219647L1555.512993505648 501.33005754219647Q1555.512993505648 492.38572353223714 1561.0525357172542 485.8733836639587Q1566.6191000859903 479.36104379568013 1575.4553454674306 475.17260944056324Q1584.3186130060008 470.98417508544634 1594.7221435009683 468.9575133007124Q1605.1256739959363 466.9038293588486 1614.8536505626594 467.0929844587571L1614.8536505626594 467.0929844587571L1614.8536505626594 455.0411023788723Q1614.8536505626594 448.2315187821662 1613.6916978060785 442.2055777422238Q1612.5297450494973 436.1526145451516 1608.6385544228083 432.2614239184624Q1604.7473637961189 428.3702332917731 1596.1813399859766 428.18107819186463L1596.1813399859766 428.18107819186463Q1590.5337091458514 427.99192309195615 1584.6158567344282 430.31582860511776Q1578.670982165875 432.66675627540917 1575.9417442957665 438.31438711553454L1575.9417442957665 438.31438711553454Q1577.5090294092943 439.8546500719324 1577.9954282376302 441.90833401379615Q1578.4818270659666 443.9349957985301 1578.4818270659666 445.69143601196623L1578.4818270659666 445.69143601196623Q1578.4818270659666 448.04236368225764 1576.536231752622 451.04182312366396Q1574.5906364392772 454.0683047222 1569.7266481559159 453.87914962229155L1569.7266481559159 453.87914962229155Q1565.646302429318 453.87914962229155 1563.4845298589353 451.04182312366396Q1561.349779445682 448.2315187821662 1561.349779445682 444.3403281554769L1561.349779445682 444.3403281554769Q1561.349779445682 437.71989965867925 1566.3218563575629 432.4776011755007Q1571.2669111123137 427.20828053519233 1580.0220900223644 424.1007324652669Q1588.7772689324152 420.9931843953414 1599.8833755127575 420.9931843953414L1599.8833755127575 420.9931843953414Q1616.2317805762782 420.9931843953414 1624.0141618296566 429.6402746768731Q1631.7965430830354 438.31438711553454 1631.580365825997 456.986697692217L1631.580365825997 456.986697692217Q1631.580365825997 464.1745914887402 1631.580365825997 471.4705739137825Q1631.580365825997 478.76655633882484 1631.4992993546075 486.06253876386717Q1631.3912107260885 493.3585211889095 1631.3912107260885 500.762592242471L1631.3912107260885 500.762592242471Q1631.3912107260885 503.8701403123964 1631.20205562618 506.9776883823219Q1631.0129005262716 510.08523645224733 1630.6075681693246 513.9764270789365L1630.6075681693246 513.9764270789365Q1634.120448596197 513.787271979028 1637.52524039455 513.5981168791195Q1640.9300321929031 513.408961779211 1644.4429126197751 513.2198066793026L1644.4429126197751 513.2198066793026L1644.4429126197751 521.380498132498ZM1614.8536505626594 473.71341295555476L1614.8536505626594 473.71341295555476Q1608.2332220658614 473.9025680554633 1600.937239640819 475.3617645404717Q1593.641257215777 476.82096102548024 1587.5342497044448 479.73935399549714Q1581.4002200359837 482.6577469655141 1577.5900958806837 487.4406687774863Q1573.8069938825138 492.19656843232866 1573.9961489824223 499.00615202903487L1573.9961489824223 499.00615202903487Q1574.4014813393687 506.194045825558 1578.779070794394 509.81501488094943Q1583.1566602494195 513.408961779211 1589.182601289362 513.408961779211L1589.182601289362 513.408961779211Q1597.154137642649 513.408961779211 1603.099012211202 510.3824801806749Q1609.0168646226252 507.38302073926866 1614.8536505626594 501.92454499905176L1614.8536505626594 501.92454499905176Q1614.6644954627504 499.7897945857987 1614.6644954627504 497.24971181559874Q1614.6644954627504 494.7366512025286 1614.6644954627504 492.0074133324202L1614.6644954627504 492.0074133324202Q1614.6644954627504 491.03461567574783 1614.77258409127 485.7652950354395Q1614.8536505626594 480.52299655226096 1614.8536505626594 473.71341295555476ZM1693.082795453391 524.4880462024234L1693.082795453391 524.4880462024234Q1688.5971173698463 524.4880462024234 1683.9222841863934 523.2180048173235Q1679.2474510029401 521.9749855893533 1675.2751939048617 518.2729500625726Q1671.2759146496533 514.5709145357919 1668.9520091364916 507.464087210658Q1666.6010814662 500.3572598855242 1666.6010814662 488.6836880054564L1666.6010814662 488.6836880054564L1667.0064138231469 432.2614239184624L1652.0091166161155 432.4776011755007L1652.0091166161155 424.1007324652669Q1657.0892821565153 423.91157736535837 1662.331580639694 420.31763046709676Q1667.5738791228728 416.6966614117054 1671.7623134779897 410.48156527185455Q1675.950747833106 404.26646913200364 1677.5180329466339 396.86239807844214L1677.5180329466339 396.86239807844214L1684.111439286302 396.86239807844214L1684.111439286302 424.1007324652669L1716.8082494133432 424.1007324652669L1716.8082494133432 431.6939586187369L1684.111439286302 432.0722688185539L1683.7331290864845 486.1706273923863Q1683.7331290864845 494.92580630243714 1685.1923255714933 501.05983597089863Q1686.6515220565016 507.1668434822304 1689.9482252263356 510.30141370928555Q1693.2719505532996 513.408961779211 1698.5142490364778 513.408961779211L1698.5142490364778 513.408961779211Q1703.9727247766946 513.408961779211 1708.728624431537 510.30141370928555Q1713.5115462435097 507.1668434822304 1717.1865596131606 501.7353898991433L1717.1865596131606 501.7353898991433L1722.4558802534689 506.00489072564955Q1718.1593572698325 512.4361641225387 1713.9979450718456 516.1381996493194Q1709.8095107167287 519.8132130189704 1705.9183200900393 521.6777418609256Q1702.0271294633503 523.5152485457511 1698.7034041363863 524.0016473740873Q1695.4067009665523 524.4880462024234 1693.082795453391 524.4880462024234ZM1731.778524463245 521.380498132498L1731.778524463245 515.5437121924642Q1737.8314876603172 515.5437121924642 1740.1553931734788 512.5172305939282Q1742.4792986866405 509.5177711525218 1742.8846310435874 504.16738404082406Q1743.2629412434044 498.81699692912633 1743.2629412434044 491.81825823251165L1743.2629412434044 491.81825823251165L1743.2629412434044 447.44787622540235Q1743.2629412434044 444.3403281554769 1743.4520963433129 441.50300165684934Q1743.6682736003509 438.69269731535155 1744.0465838001683 434.8015066886623L1744.0465838001683 434.8015066886623Q1740.5337033732958 434.99066178857083 1737.1289115749428 435.1798168884793Q1733.7241197765898 435.3959941455176 1730.2382615068473 435.5851492454261L1730.2382615068473 435.5851492454261L1730.2382615068473 427.3974356351008Q1738.8042853169895 427.3974356351008 1743.4520963433129 426.6408152354668Q1748.1269295267657 425.857172678703 1750.5589236684468 424.6952199221222Q1752.9909178101275 423.50624500841155 1754.3690478237468 422.15513715192225L1754.3690478237468 422.15513715192225L1759.989656506742 422.15513715192225L1759.989656506742 500.762592242471Q1759.989656506742 504.65378286916024 1759.9085900353525 507.65324231056655Q1759.8005014068335 510.6797239091026 1759.233036107108 513.9764270789365L1759.233036107108 513.9764270789365Q1762.3405841770336 513.787271979028 1765.3400436184397 513.7062055076387Q1768.3665252169758 513.5981168791195 1771.4740732869013 513.408961779211L1771.4740732869013 513.408961779211L1771.4740732869013 521.380498132498L1731.778524463245 521.380498132498ZM1750.4778571970573 402.8883391183845L1750.4778571970573 402.8883391183845Q1746.3704893133295 402.8883391183845 1743.2629412434044 399.5916359485506Q1740.1553931734788 396.26791062158685 1740.1553931734788 391.4039223382253L1740.1553931734788 391.4039223382253Q1740.1553931734788 386.53993405486375 1743.3710298719234 383.1351422565107Q1746.586666570368 379.7303504581576 1750.6670122969658 379.7303504581576L1750.6670122969658 379.7303504581576Q1755.1256682233807 379.7303504581576 1758.1521498219167 383.1351422565107Q1761.1786314204528 386.53993405486375 1761.1786314204528 391.4039223382253L1761.1786314204528 391.4039223382253Q1761.1786314204528 396.26791062158685 1757.9629947220083 399.5916359485506Q1754.7473580235637 402.8883391183845 1750.4778571970573 402.8883391183845ZM1784.525775180588 521.380498132498L1784.525775180588 515.5437121924642Q1790.5517162205306 515.5437121924642 1792.8756217336922 512.5172305939282Q1795.2265494039834 509.5177711525218 1795.6048596038004 504.16738404082406Q1795.9831698036173 498.81699692912633 1795.9831698036173 491.81825823251165L1795.9831698036173 491.81825823251165L1795.9831698036173 399.7807910484591Q1795.9831698036173 396.67324297853366 1796.0912584321368 393.8359164799061Q1796.1993470606558 391.0256121384083 1796.5776572604732 387.13442151171904L1796.5776572604732 387.13442151171904Q1793.0647768336007 387.3235766116276 1789.6599850352477 387.51273171153605Q1786.2551932368942 387.72890896857433 1782.7693349671522 387.91806406848286L1782.7693349671522 387.91806406848286L1782.7693349671522 379.7303504581576Q1791.3353587772945 379.7303504581576 1796.0912584321368 378.97373005852353Q1800.847158086979 378.1900875017597 1803.2791522286598 377.02813474517893Q1805.7111463703409 375.8391598314683 1807.0892763839597 374.488051974979L1807.0892763839597 374.488051974979L1812.736907224085 374.488051974979L1812.9260623239934 500.762592242471Q1812.9260623239934 504.65378286916024 1812.736907224085 507.65324231056655Q1812.520729967047 510.6797239091026 1811.9532646673215 513.9764270789365L1811.9532646673215 513.9764270789365Q1815.0608127372466 513.787271979028 1818.087294335783 513.7062055076387Q1821.0867537771892 513.5981168791195 1824.1943018471147 513.408961779211L1824.1943018471147 513.408961779211L1824.1943018471147 521.380498132498L1784.525775180588 521.380498132498Z " fill="#8000ff" transform="matrix(0.47966379383636853,0,0,0.47966379383636865,0,84.39684562276528)"/></g></svg>